<svg id="Layer_1" data-name="Layer 1" xmlns="http://www.w3.org/2000/svg" viewBox="0 0 158 155"><defs><style>.cls-1{fill:#5658dd;}.cls-2{fill:#eceded;}</style></defs><title>TOP LOGO</title><path class="cls-1" d="M30.25,78.3s-1.78,3.88-4.12,9.06A57.08,57.08,0,0,1,82.25,20.3c1.49,0,3,.06,4.44.17l-3.44.83C55.21,32.31,30.25,78.3,30.25,78.3Z"/><path class="cls-1" d="M32.42,105a55.9,55.9,0,0,1-5.13-12.55l3.45-6.62c31.39-60.49,64-62.66,69.66-62.56a56.89,56.89,0,0,1,25.09,16.91s0,0,0,0C72.27,34.74,35.21,99.93,32.42,105Z"/><path class="cls-1" d="M55.66,127.62a.82.82,0,0,1,0,.1A57.2,57.2,0,0,1,37.41,112.5h0C68.59,46.7,130.66,47.2,130.66,47.2a56.62,56.62,0,0,1,7.15,17.34l-.56-.24C83,53.29,55.66,127.62,55.66,127.62Z"/><path class="cls-1" d="M138.34,87.49a57.05,57.05,0,0,1-43.68,45.45C75.07,94.58,138.34,87.49,138.34,87.49Z"/><path class="cls-1" d="M139.25,77.3q0,1.31-.06,2.58C68.6,98.42,85.45,131.16,87.13,134.09c-1.61.14-3.24.21-4.88.21a56.74,56.74,0,0,1-20.18-3.68c12.83-60.68,77-58.4,77-58.4C139.17,73.89,139.25,75.59,139.25,77.3Z"/><polygon class="cls-2" points="98.75 58.45 87.23 58.45 87.23 118.6 77.25 118.6 77.25 58.45 65.75 58.45 65.75 49.08 77.63 49.08 77.63 36 87.11 36 87.11 49.08 98.75 49.08 98.75 58.45"/></svg>